<svg version="1.1" id="Layer_1" xmlns="http://www.w3.org/2000/svg" xmlns:xlink="http://www.w3.org/1999/xlink" x="0px" y="0px"
	 width="100%" viewBox="0 0 815 631" enable-background="new 0 0 815 631" xml:space="preserve">
<path fill="#000000" opacity="1.000000" stroke="none" 
	d="
M475.000000,632.000000 
	C316.666656,632.000000 158.833328,632.000000 1.000000,632.000000 
	C1.000000,421.666656 1.000000,211.333328 1.000000,1.000000 
	C272.666656,1.000000 544.333313,1.000000 816.000000,1.000000 
	C816.000000,211.333328 816.000000,421.666656 816.000000,632.000000 
	C702.500000,632.000000 589.000000,632.000000 475.000000,632.000000 
M445.011383,234.590027 
	C445.329041,234.752655 445.646667,234.915298 445.993286,235.005539 
	C445.993286,235.005539 445.931244,235.052734 446.141968,235.722000 
	C448.083282,236.843521 450.024567,237.965042 451.996796,239.022141 
	C451.996796,239.022141 451.929657,238.997711 452.076721,239.421600 
	C452.224579,239.741623 452.471588,239.868744 453.542480,239.970276 
	C457.320984,242.315216 461.099518,244.660156 465.156250,247.705078 
	C466.520935,249.230896 468.049744,249.739685 468.301666,247.154770 
	C468.566589,244.436813 468.092316,241.646835 468.064636,238.557739 
	C468.064636,238.557739 467.949036,238.224304 468.735748,237.771317 
	C468.821777,228.764633 468.929932,219.757980 468.948181,210.751160 
	C468.949524,210.095139 468.299194,209.437790 468.064392,208.439407 
	C468.064392,208.439407 467.941528,208.101334 468.004669,207.142334 
	C468.207092,179.231216 468.466461,151.320251 468.545288,123.408775 
	C468.556061,119.600212 467.665710,115.789108 466.742188,111.202888 
	C466.418762,111.130989 466.095306,110.996170 465.771881,110.996117 
	C430.566895,110.989807 395.361908,110.983315 360.157013,111.041031 
	C358.970093,111.042976 357.784241,111.698166 356.454102,111.910454 
	C356.454102,111.910454 356.297272,112.033852 355.615173,111.977974 
	C355.052277,112.629509 354.489410,113.281036 353.998199,113.999199 
	C353.998199,113.999199 353.937714,113.922386 353.343353,114.053490 
	C352.869476,114.682114 352.395630,115.310738 351.996552,115.996613 
	C351.996552,115.996613 351.939301,115.921791 351.344604,116.052628 
	C350.870422,116.681297 350.396271,117.309967 349.997131,117.997063 
	C349.997131,117.997063 349.938690,117.922066 349.344086,118.052979 
	C348.870056,118.681671 348.395996,119.310356 347.996674,119.996712 
	C347.996674,119.996712 347.939240,119.921822 347.344360,120.052765 
	C346.870087,120.681686 346.395844,121.310600 345.996338,121.996490 
	C345.996338,121.996490 345.939514,121.921570 345.344635,122.052605 
	C344.870331,122.681488 344.396027,123.310371 344.000000,123.996338 
	C344.000000,123.996338 343.921326,123.935608 343.295959,124.104736 
	C343.199615,124.725624 343.103302,125.346512 342.358276,126.157875 
	C338.061493,130.426941 333.741974,134.673492 329.481476,138.978485 
	C328.164856,140.308838 326.458282,141.831390 330.176025,143.764404 
	C341.685425,143.839050 353.194824,143.925797 364.704315,143.946457 
	C365.190796,143.947342 365.678345,143.334534 366.820679,143.084778 
	C367.751099,143.573120 368.681519,144.061462 369.557892,144.521423 
	C367.050018,147.845718 364.728851,151.016388 362.310883,154.111435 
	C351.850464,167.501007 341.366394,180.872086 330.882080,194.242981 
	C320.786407,207.118149 310.650116,219.961578 300.589386,232.863968 
	C294.668304,240.457520 288.859619,248.138733 282.247620,256.117676 
	C281.886261,259.099792 281.524902,262.081909 281.018494,265.983795 
	C281.009094,277.873840 280.966522,289.764069 281.031769,301.653717 
	C281.040039,303.162415 281.612915,304.668060 282.220490,306.857635 
	C283.480743,306.155060 284.740967,305.452484 286.267517,304.339111 
	C286.512573,303.932190 286.757629,303.525299 287.401703,302.911621 
	C287.722076,302.767273 287.854858,302.521606 288.095398,301.527405 
	C299.923431,286.690857 311.818054,271.906830 323.563110,257.004913 
	C339.258453,237.090942 354.876312,217.115509 370.454895,197.110016 
	C383.379181,180.513168 396.198547,163.834610 409.768738,146.903915 
	C411.212769,145.957886 412.660980,144.196716 414.100067,144.204132 
	C421.066681,144.240021 428.030853,144.750977 435.000092,146.002136 
	C435.857727,153.322647 434.394867,159.475006 428.178345,164.515564 
	C424.187531,167.751465 421.308228,172.388840 418.051697,176.493973 
	C408.179565,188.938644 398.369049,201.432175 388.529510,213.902695 
	C378.996063,225.985260 369.471863,238.075165 359.914764,250.138992 
	C351.774658,260.414185 343.522278,270.601288 335.452850,280.931458 
	C328.909698,289.307648 322.560974,297.835846 316.133911,306.302643 
	C314.574127,308.357452 314.028717,310.143646 315.752869,312.758881 
	C318.979645,317.653381 321.553223,322.974915 324.471619,328.076996 
	C336.544678,349.183716 348.592682,370.305054 360.751556,391.362305 
	C370.966492,409.052948 381.334076,426.655396 391.611755,444.309875 
	C398.737366,456.549927 405.824982,468.812073 413.028656,481.933258 
	C411.591370,482.288849 410.159454,482.925293 408.715851,482.952972 
	C401.148865,483.098145 393.578888,483.089050 385.415192,482.749176 
	C381.743317,476.399689 378.057098,470.058472 374.402435,463.699097 
	C365.478333,448.170563 356.593536,432.619385 347.646332,417.104187 
	C339.158508,402.385590 330.606903,387.703827 322.092102,373.000793 
	C315.782196,362.105133 309.451752,351.221130 303.206329,340.288605 
	C301.428406,337.176422 300.097870,337.044830 297.871307,340.060455 
	C293.683929,345.731842 288.803314,350.909546 284.839447,356.721222 
	C282.369293,360.342926 277.715881,363.776794 281.045654,369.336334 
	C294.141602,391.201996 307.371948,412.988770 320.281769,434.963806 
	C332.209045,455.266296 343.731964,475.805969 355.556641,496.169342 
	C359.457977,502.887817 363.744904,509.382446 368.274078,516.772217 
	C395.681000,516.847473 423.087891,516.926392 450.494812,516.995483 
	C457.287476,517.012634 464.080231,516.998047 471.599396,516.998047 
	C470.836792,515.324524 470.319092,514.188538 469.289368,512.595459 
	C463.111877,501.816223 456.924286,491.042755 450.759247,480.256439 
	C441.428406,463.931152 432.192139,447.551270 422.770233,431.278748 
	C412.447662,413.450684 401.920776,395.740997 391.554901,377.937805 
	C380.461456,358.885193 369.411255,339.807068 358.426514,320.691620 
	C354.222565,313.375854 352.892517,311.467285 359.312103,304.165680 
	C360.389923,302.939758 361.269836,301.541962 362.279205,300.253357 
	C371.553131,288.413330 380.834167,276.578857 390.115814,264.744843 
	C400.220154,251.861938 410.397980,239.035767 420.398895,226.073074 
	C424.445831,220.827606 428.109314,215.286316 432.847443,209.886566 
	C433.282654,211.614197 433.850769,213.320892 434.126831,215.073578 
	C434.807526,219.394836 435.354156,223.737198 435.988647,227.997925 
	C435.988647,227.997925 435.929779,228.053146 436.083954,228.712616 
	C437.046936,229.169205 438.009949,229.625793 438.990326,230.012833 
	C438.990326,230.012833 438.921936,230.034424 439.009155,230.587250 
	C439.324036,230.751785 439.638947,230.916306 439.986694,230.998413 
	C439.986694,230.998413 439.929291,231.066254 440.048279,231.720840 
	C441.018646,232.172348 441.989044,232.623840 442.992737,233.004288 
	C442.992737,233.004288 442.928528,233.049377 443.096558,233.686874 
	C443.723480,233.818787 444.350433,233.950714 444.990082,234.012634 
	C444.990082,234.012634 444.922394,234.034515 445.011383,234.590027 
M592.943787,159.926834 
	C593.061890,160.903549 593.179932,161.880280 593.022583,163.611450 
	C591.612793,172.168243 590.296814,180.741791 588.772156,189.278076 
	C586.248108,203.409363 583.442810,217.491638 581.030579,231.641342 
	C578.797546,244.740326 577.157227,257.942108 574.827454,271.022308 
	C572.496033,284.111755 569.397705,297.064636 567.063660,310.153687 
	C564.069763,326.942413 561.651733,343.833374 558.709473,360.631927 
	C556.003723,376.080292 552.783630,391.438446 550.064636,406.884674 
	C547.523376,421.321045 545.393311,435.829315 542.982666,450.289337 
	C541.755798,457.648865 540.342163,464.977966 538.954468,472.309753 
	C537.342590,480.825684 535.504150,489.302307 534.073975,497.847839 
	C533.072021,503.834137 532.589417,509.907318 532.272888,516.748962 
	C548.655579,516.836975 565.038269,516.936951 581.421021,516.958496 
	C581.938965,516.959167 582.457886,516.152954 583.108765,515.570312 
	C583.108765,515.570312 582.980896,515.413818 583.366882,515.004700 
	C583.534058,514.693420 583.701233,514.382080 584.040955,513.215393 
	C584.852173,507.896301 585.570312,502.560974 586.493408,497.261322 
	C588.620422,485.049774 590.901978,472.865082 593.018188,460.651733 
	C595.247070,447.788147 597.291077,434.892426 599.542419,422.032867 
	C600.919006,414.169952 602.603760,406.361420 604.025513,398.505920 
	C606.289856,385.994354 608.528259,373.477020 610.625732,360.936707 
	C611.891602,353.368591 612.870178,345.752380 614.711243,337.878479 
	C614.778687,336.589508 614.846130,335.300537 615.104919,333.719147 
	C615.104919,333.719147 614.978577,333.393341 615.698792,332.902374 
	C616.684143,326.340637 617.669495,319.778870 618.950439,312.396423 
	C620.995667,300.359070 622.984314,288.311798 625.098328,276.286530 
	C629.042297,253.852615 633.036987,231.427582 637.052917,209.006424 
	C639.975708,192.688416 642.966553,176.382614 646.306335,159.324539 
	C650.895569,158.851456 655.484741,158.378372 660.402527,158.063980 
	C660.402527,158.063980 660.747070,157.943802 661.216980,158.725861 
	C672.005127,158.813995 682.793274,158.915009 693.581604,158.948059 
	C694.065186,158.949539 694.550598,158.334259 695.869690,158.035233 
	C696.949707,154.076172 698.229248,150.158463 699.060547,146.147842 
	C700.159241,140.847610 700.906677,135.474579 701.992249,129.277435 
	C702.198853,127.861687 702.453369,126.450981 702.603088,125.029236 
	C703.053040,120.755707 703.462158,116.477867 703.785706,111.283516 
	C703.134827,111.188278 702.483887,111.009842 701.833008,111.009651 
	C653.303467,110.995239 604.773987,110.987495 556.244507,111.038376 
	C555.091370,111.039589 553.938843,111.709679 552.121277,112.407631 
	C551.165894,116.682861 550.026733,120.927017 549.296997,125.240440 
	C548.121826,132.186691 547.216736,139.178650 545.806335,146.843292 
	C545.171204,149.710724 544.466614,152.565018 543.920959,155.449371 
	C543.401123,158.196838 545.186462,158.204041 547.421936,158.068985 
	C547.421936,158.068985 547.742004,157.943726 548.215210,158.724426 
	C550.027161,158.816284 551.838684,158.977386 553.651123,158.988922 
	C566.747009,159.072403 579.843140,159.125641 592.943787,159.926834 
M272.009399,516.006653 
	C272.009399,516.006653 272.031311,516.075684 272.836700,515.701904 
	C272.890442,515.207458 272.991241,514.712952 272.991272,514.218506 
	C272.998474,381.697479 273.001831,249.176437 272.956726,116.655426 
	C272.956268,115.280006 272.316833,113.904800 271.988617,112.207664 
	C271.856781,111.969322 271.672180,111.916924 270.850861,111.333427 
	C270.203979,111.222733 269.557190,111.015640 268.910248,111.015236 
	C241.987228,110.998611 215.064194,110.987022 188.141296,111.044319 
	C186.936234,111.046883 185.732559,111.695885 184.218170,111.991447 
	C183.982498,112.105820 183.916824,112.283104 183.359238,113.156349 
	C183.241867,114.635292 183.021881,116.114227 183.021683,117.593185 
	C183.004745,248.934586 183.001556,380.276001 183.043777,511.617401 
	C183.044266,513.104980 183.650192,514.592407 183.989410,516.008179 
	C183.989410,516.008179 183.925140,516.043701 184.318573,516.836365 
	C212.905075,516.887085 241.491592,516.944397 270.078094,516.948730 
	C270.743805,516.948792 271.409576,516.354004 272.009399,516.006653 
z"/>
<path fill="#449F65" opacity="1.000000" stroke="none" 
	d="
M287.002686,303.118408 
	C286.757629,303.525299 286.512573,303.932190 285.700500,304.535645 
	C284.278534,304.821655 283.423523,304.911133 282.590881,304.641815 
	C282.593781,303.566681 282.574310,302.850311 282.703674,301.678650 
	C282.901825,286.075714 282.951111,270.928101 283.000366,255.780518 
	C288.859619,248.138733 294.668304,240.457520 300.589386,232.863968 
	C310.650116,219.961578 320.786407,207.118149 330.882080,194.242981 
	C341.366394,180.872086 351.850464,167.501007 362.310883,154.111435 
	C364.728851,151.016388 367.050018,147.845718 369.557892,144.521423 
	C368.681519,144.061462 367.751099,143.573120 366.017883,142.975891 
	C353.379761,142.904251 341.544464,142.941513 329.709137,142.978760 
	C326.458282,141.831390 328.164856,140.308838 329.481476,138.978485 
	C333.741974,134.673492 338.061493,130.426941 342.986084,125.897911 
	C343.716339,125.070503 343.818848,124.503052 343.921326,123.935608 
	C343.921326,123.935608 344.000000,123.996338 344.320374,124.122086 
	C345.073700,123.472404 345.506622,122.696991 345.939514,121.921570 
	C345.939514,121.921570 345.996338,121.996490 346.318726,122.121124 
	C347.073853,121.471107 347.506531,120.696457 347.939209,119.921814 
	C347.939240,119.921822 347.996674,119.996712 348.318787,120.123444 
	C349.073456,119.474136 349.506073,118.698097 349.938690,117.922058 
	C349.938690,117.922066 349.997131,117.997063 350.318359,118.124870 
	C351.072845,117.475708 351.506073,116.698746 351.939270,115.921783 
	C351.939301,115.921791 351.996552,115.996613 352.319458,116.122284 
	C353.074127,115.472763 353.505920,114.697578 353.937714,113.922394 
	C353.937714,113.922386 353.998199,113.999199 354.300537,114.147110 
	C355.167694,113.541298 355.732483,112.787582 356.297302,112.033859 
	C356.297272,112.033852 356.454102,111.910454 356.836243,112.027679 
	C357.419403,112.201248 357.620392,112.257599 358.189392,112.523636 
	C360.382629,112.812599 362.207916,112.960213 364.033234,112.961014 
	C396.192932,112.975113 428.352661,112.971313 460.512360,112.971390 
	C462.460022,112.971390 464.407684,112.971382 466.983154,112.971382 
	C466.983154,115.521706 466.983185,117.474464 466.983154,119.427216 
	C466.982758,147.087906 466.963501,174.748627 467.023193,202.409180 
	C467.027283,204.307220 467.621674,206.203979 467.941528,208.101334 
	C467.941528,208.101334 468.064392,208.439407 467.933594,208.900055 
	C467.742828,209.550812 467.682892,209.740906 467.405640,210.283813 
	C467.330902,219.447281 467.473511,228.257935 467.706909,237.355347 
	C467.848114,237.836166 467.898560,238.030228 467.949036,238.224304 
	C467.949036,238.224304 468.064636,238.557739 467.704193,239.002274 
	C466.521851,241.966248 465.699951,244.485672 464.878052,247.005096 
	C461.099518,244.660156 457.320984,242.315216 453.093262,239.694885 
	C452.455444,239.194992 452.217316,239.054398 451.929657,238.997711 
	C451.929657,238.997711 451.996796,239.022141 452.034241,238.693054 
	C450.024902,237.260239 447.978058,236.156479 445.931244,235.052734 
	C445.931244,235.052734 445.993286,235.005539 445.995850,234.726562 
	C445.639740,234.309875 445.281067,234.172195 444.922394,234.034515 
	C444.922394,234.034515 444.990082,234.012634 444.941284,233.698883 
	C444.237823,233.273209 443.583160,233.161285 442.928528,233.049377 
	C442.928528,233.049377 442.992737,233.004288 443.017456,232.664139 
	C442.004547,231.904739 440.966919,231.485489 439.929291,231.066254 
	C439.929291,231.066254 439.986694,230.998413 439.990540,230.725220 
	C439.636871,230.312820 439.279419,230.173630 438.921936,230.034424 
	C438.921936,230.034424 438.990326,230.012833 438.959686,229.698151 
	C437.929291,228.940018 436.929535,228.496582 435.929779,228.053146 
	C435.929779,228.053146 435.988647,227.997925 436.052673,227.566330 
	C436.000458,221.864197 435.875336,216.593826 435.770966,211.323044 
	C435.697723,207.623688 434.518158,206.926941 431.947266,209.879639 
	C428.109314,215.286316 424.445831,220.827606 420.398895,226.073074 
	C410.397980,239.035767 400.220154,251.861938 390.115814,264.744843 
	C380.834167,276.578857 371.553131,288.413330 362.279205,300.253357 
	C361.269836,301.541962 360.389923,302.939758 359.312103,304.165680 
	C352.892517,311.467285 354.222565,313.375854 358.426514,320.691620 
	C369.411255,339.807068 380.461456,358.885193 391.554901,377.937805 
	C401.920776,395.740997 412.447662,413.450684 422.770233,431.278748 
	C432.192139,447.551270 441.428406,463.931152 450.759247,480.256439 
	C456.924286,491.042755 463.111877,501.816223 469.484619,513.220703 
	C467.992401,514.506226 466.307800,515.733948 464.616974,515.742554 
	C432.363586,515.907227 400.109467,515.928467 367.855499,515.979370 
	C363.744904,509.382446 359.457977,502.887817 355.556641,496.169342 
	C343.731964,475.805969 332.209045,455.266296 320.281769,434.963806 
	C307.371948,412.988770 294.141602,391.201996 281.045654,369.336334 
	C277.715881,363.776794 282.369293,360.342926 284.839447,356.721222 
	C288.803314,350.909546 293.683929,345.731842 297.871307,340.060455 
	C300.097870,337.044830 301.428406,337.176422 303.206329,340.288605 
	C309.451752,351.221130 315.782196,362.105133 322.092102,373.000793 
	C330.606903,387.703827 339.158508,402.385590 347.646332,417.104187 
	C356.593536,432.619385 365.478333,448.170563 374.402435,463.699097 
	C378.057098,470.058472 381.743317,476.399689 385.869080,483.296997 
	C395.773804,483.844849 405.224609,483.844849 415.455292,483.844849 
	C414.323853,482.599304 413.626709,481.831818 412.929565,481.064362 
	C405.824982,468.812073 398.737366,456.549927 391.611755,444.309875 
	C381.334076,426.655396 370.966492,409.052948 360.751556,391.362305 
	C348.592682,370.305054 336.544678,349.183716 324.471619,328.076996 
	C321.553223,322.974915 318.979645,317.653381 315.752869,312.758881 
	C314.028717,310.143646 314.574127,308.357452 316.133911,306.302643 
	C322.560974,297.835846 328.909698,289.307648 335.452850,280.931458 
	C343.522278,270.601288 351.774658,260.414185 359.914764,250.138992 
	C369.471863,238.075165 378.996063,225.985260 388.529510,213.902695 
	C398.369049,201.432175 408.179565,188.938644 418.051697,176.493973 
	C421.308228,172.388840 424.187531,167.751465 428.178345,164.515564 
	C434.394867,159.475006 435.857727,153.322647 434.981567,145.118668 
	C434.656586,143.887604 434.354675,143.241074 434.042969,143.236328 
	C426.945648,143.128067 419.837189,142.883026 412.758179,143.227127 
	C411.465729,143.289963 410.292603,145.807724 409.064392,147.192261 
	C396.198547,163.834610 383.379181,180.513168 370.454895,197.110016 
	C354.876312,217.115509 339.258453,237.090942 323.563110,257.004913 
	C311.818054,271.906830 299.923431,286.690857 287.766479,301.958862 
	C287.288879,302.630768 287.143921,302.873474 287.002686,303.118408 
z"/>
<path fill="#459F66" opacity="1.000000" stroke="none" 
	d="
M184.021118,112.523308 
	C183.916824,112.283104 183.982498,112.105820 184.861572,112.151085 
	C204.830444,112.332245 224.155975,112.390884 243.481354,112.359245 
	C252.799316,112.343994 262.117004,112.158737 271.434814,112.050461 
	C271.672180,111.916924 271.856781,111.969322 271.923035,112.868721 
	C271.876984,205.764160 271.887543,297.998566 271.919983,390.232941 
	C271.934723,432.180511 271.992859,474.128113 272.031311,516.075684 
	C272.031311,516.075684 272.009399,516.006653 271.575012,515.937317 
	C242.068802,515.926514 212.996964,515.985107 183.925140,516.043701 
	C183.925140,516.043701 183.989410,516.008179 184.067535,515.578491 
	C184.104141,513.818726 184.026337,512.488586 184.026276,511.158417 
	C184.020752,378.280060 184.021118,245.401672 184.021118,112.523308 
M216.456696,143.821213 
	C216.279160,144.197876 216.101624,144.574539 215.760071,145.883133 
	C215.748749,253.943436 215.735168,362.003754 215.735107,470.064056 
	C215.735107,474.054688 215.867401,478.045349 215.883301,482.921753 
	C216.185944,483.270844 216.484756,483.920990 216.791809,483.924896 
	C224.153656,484.018433 231.516479,484.063385 238.878571,484.021759 
	C239.265610,484.019592 239.647888,483.177002 239.893967,482.243500 
	C239.940384,481.915588 239.986816,481.587677 240.288010,480.314606 
	C240.310379,479.648773 240.352295,478.982941 240.352310,478.317108 
	C240.354858,368.365051 240.355957,258.413025 240.337799,148.460968 
	C240.337555,146.977982 240.092529,145.495026 239.484314,143.311005 
	C234.420349,143.208694 229.354324,142.977814 224.293335,143.059586 
	C221.852432,143.099014 219.421036,143.727112 217.006363,144.012054 
	C217.006363,144.012054 217.078766,144.044708 216.456696,143.821213 
z"/>
<path fill="#449F65" opacity="1.000000" stroke="none" 
	d="
M547.742004,157.943726 
	C547.742004,157.943726 547.421936,158.068985 547.052856,157.704376 
	C546.315674,156.122147 545.644653,154.905029 545.642700,153.686829 
	C545.638611,151.175293 545.991516,148.663177 546.197510,146.151291 
	C547.216736,139.178650 548.121826,132.186691 549.296997,125.240440 
	C550.026733,120.927017 551.165894,116.682861 552.933472,112.311523 
	C603.792847,112.210838 653.839966,112.206276 703.887146,112.201706 
	C703.462158,116.477867 703.053040,120.755707 702.603088,125.029236 
	C702.453369,126.450981 702.198853,127.861687 701.541443,129.755157 
	C700.530884,130.981308 699.611023,131.667801 699.469971,132.488220 
	C698.550537,137.834122 697.644775,143.191360 697.030029,148.578598 
	C696.061279,157.066727 696.158936,157.001633 687.956360,157.100571 
	C679.231384,157.205795 670.508362,157.475388 661.529785,157.758881 
	C661.099121,157.877625 660.923096,157.910706 660.747070,157.943802 
	C660.747070,157.943802 660.402527,158.063980 659.923340,157.702637 
	C655.557068,157.257736 651.668579,157.077850 647.783569,157.133896 
	C646.015930,157.159393 643.852173,157.400757 645.927124,160.071381 
	C642.966553,176.382614 639.975708,192.688416 637.052917,209.006424 
	C633.036987,231.427582 629.042297,253.852615 625.098328,276.286530 
	C622.984314,288.311798 620.995667,300.359070 618.561890,313.030640 
	C617.108459,320.240997 616.043518,326.817169 614.978577,333.393341 
	C614.978577,333.393341 615.104919,333.719147 614.711060,334.094971 
	C614.204102,335.699768 614.091003,336.928802 613.977905,338.157806 
	C612.870178,345.752380 611.891602,353.368591 610.625732,360.936707 
	C608.528259,373.477020 606.289856,385.994354 604.025513,398.505920 
	C602.603760,406.361420 600.919006,414.169952 599.542419,422.032867 
	C597.291077,434.892426 595.247070,447.788147 593.018188,460.651733 
	C590.901978,472.865082 588.620422,485.049774 586.493408,497.261322 
	C585.570312,502.560974 584.852173,507.896301 583.686951,513.758545 
	C583.215576,514.672485 583.098267,515.043152 582.980957,515.413818 
	C582.980896,515.413818 583.108765,515.570312 582.575806,515.620422 
	C565.320251,515.760925 548.597534,515.851318 531.874878,515.941711 
	C532.589417,509.907318 533.072021,503.834137 534.073975,497.847839 
	C535.504150,489.302307 537.342590,480.825684 538.954468,472.309753 
	C540.342163,464.977966 541.755798,457.648865 542.982666,450.289337 
	C545.393311,435.829315 547.523376,421.321045 550.064636,406.884674 
	C552.783630,391.438446 556.003723,376.080292 558.709473,360.631927 
	C561.651733,343.833374 564.069763,326.942413 567.063660,310.153687 
	C569.397705,297.064636 572.496033,284.111755 574.827454,271.022308 
	C577.157227,257.942108 578.797546,244.740326 581.030579,231.641342 
	C583.442810,217.491638 586.248108,203.409363 588.772156,189.278076 
	C590.296814,180.741791 591.612793,172.168243 593.485229,163.092773 
	C594.349609,160.968399 594.751465,159.362701 595.332642,157.040695 
	C585.027283,157.040695 575.587097,156.971298 566.148499,157.066376 
	C560.368774,157.124588 554.591675,157.435074 548.550171,157.725952 
	C548.105286,157.861008 547.923645,157.902359 547.742004,157.943726 
z"/>
<path fill="#D0FFE4" opacity="1.000000" stroke="none" 
	d="
M183.690186,112.839828 
	C184.021118,245.401672 184.020752,378.280060 184.026276,511.158417 
	C184.026337,512.488586 184.104141,513.818726 184.059586,515.614380 
	C183.650192,514.592407 183.044266,513.104980 183.043777,511.617401 
	C183.001556,380.276001 183.004745,248.934586 183.021683,117.593185 
	C183.021881,116.114227 183.241867,114.635292 183.690186,112.839828 
z"/>
<path fill="#C5F5D7" opacity="1.000000" stroke="none" 
	d="
M272.433990,515.888794 
	C271.992859,474.128113 271.934723,432.180511 271.919983,390.232941 
	C271.887543,297.998566 271.876984,205.764160 271.916595,113.029633 
	C272.316833,113.904800 272.956268,115.280006 272.956726,116.655426 
	C273.001831,249.176437 272.998474,381.697479 272.991272,514.218506 
	C272.991241,514.712952 272.890442,515.207458 272.433990,515.888794 
z"/>
<path fill="#8EAF9C" opacity="1.000000" stroke="none" 
	d="
M467.973114,207.621826 
	C467.621674,206.203979 467.027283,204.307220 467.023193,202.409180 
	C466.963501,174.748627 466.982758,147.087906 466.983154,119.427216 
	C466.983185,117.474464 466.983154,115.521706 466.983154,112.971382 
	C464.407684,112.971382 462.460022,112.971390 460.512360,112.971390 
	C428.352661,112.971313 396.192932,112.975113 364.033234,112.961014 
	C362.207916,112.960213 360.382629,112.812599 358.660309,112.401749 
	C394.906372,112.039841 431.049500,112.009514 467.192596,111.979187 
	C467.665710,115.789108 468.556061,119.600212 468.545288,123.408775 
	C468.466461,151.320251 468.207092,179.231216 467.973114,207.621826 
z"/>
<path fill="#E3FFEC" opacity="1.000000" stroke="none" 
	d="
M703.836426,111.742615 
	C653.839966,112.206276 603.792847,112.210838 553.265869,112.141602 
	C553.938843,111.709679 555.091370,111.039589 556.244507,111.038376 
	C604.773987,110.987495 653.303467,110.995239 701.833008,111.009651 
	C702.483887,111.009842 703.134827,111.188278 703.836426,111.742615 
z"/>
<path fill="#E3FFEC" opacity="1.000000" stroke="none" 
	d="
M466.967407,111.591034 
	C431.049500,112.009514 394.906372,112.039841 358.292358,112.192055 
	C357.620392,112.257599 357.419403,112.201248 356.908142,112.096878 
	C357.784241,111.698166 358.970093,111.042976 360.157013,111.041031 
	C395.361908,110.983315 430.566895,110.989807 465.771881,110.996117 
	C466.095306,110.996170 466.418762,111.130989 466.967407,111.591034 
z"/>
<path fill="#CCEDD9" opacity="1.000000" stroke="none" 
	d="
M368.064789,516.375793 
	C400.109467,515.928467 432.363586,515.907227 464.616974,515.742554 
	C466.307800,515.733948 467.992401,514.506226 469.740662,513.449219 
	C470.319092,514.188538 470.836792,515.324524 471.599396,516.998047 
	C464.080231,516.998047 457.287476,517.012634 450.494812,516.995483 
	C423.087891,516.926392 395.681000,516.847473 368.064789,516.375793 
z"/>
<path fill="#BBE5CE" opacity="1.000000" stroke="none" 
	d="
M184.121857,516.440063 
	C212.996964,515.985107 242.068802,515.926514 271.607971,515.952332 
	C271.409576,516.354004 270.743805,516.948792 270.078094,516.948730 
	C241.491592,516.944397 212.905075,516.887085 184.121857,516.440063 
z"/>
<path fill="#FFFFFF" opacity="1.000000" stroke="none" 
	d="
M271.142822,111.691940 
	C262.117004,112.158737 252.799316,112.343994 243.481354,112.359245 
	C224.155975,112.390884 204.830444,112.332245 185.016602,112.177254 
	C185.732559,111.695885 186.936234,111.046883 188.141296,111.044319 
	C215.064194,110.987022 241.987228,110.998611 268.910248,111.015236 
	C269.557190,111.015640 270.203979,111.222733 271.142822,111.691940 
z"/>
<path fill="#AECAB8" opacity="1.000000" stroke="none" 
	d="
M661.784485,157.673218 
	C670.508362,157.475388 679.231384,157.205795 687.956360,157.100571 
	C696.158936,157.001633 696.061279,157.066727 697.030029,148.578598 
	C697.644775,143.191360 698.550537,137.834122 699.469971,132.488220 
	C699.611023,131.667801 700.530884,130.981308 701.447876,130.182861 
	C700.906677,135.474579 700.159241,140.847610 699.060547,146.147842 
	C698.229248,150.158463 696.949707,154.076172 694.981934,158.042297 
	C683.324219,157.923965 672.554382,157.798584 661.784485,157.673218 
z"/>
<path fill="#FFFFFF" opacity="1.000000" stroke="none" 
	d="
M412.979126,481.498810 
	C413.626709,481.831818 414.323853,482.599304 415.455292,483.844849 
	C405.224609,483.844849 395.773804,483.844849 386.166473,483.489197 
	C393.578888,483.089050 401.148865,483.098145 408.715851,482.952972 
	C410.159454,482.925293 411.591370,482.288849 412.979126,481.498810 
z"/>
<path fill="#A3C4B0" opacity="1.000000" stroke="none" 
	d="
M548.813354,157.632263 
	C554.591675,157.435074 560.368774,157.124588 566.148499,157.066376 
	C575.587097,156.971298 585.027283,157.040695 595.332642,157.040695 
	C594.751465,159.362701 594.349609,160.968399 593.622925,162.715546 
	C593.179932,161.880280 593.061890,160.903549 592.760071,159.172272 
	C589.770813,158.289490 586.966370,158.085464 584.159607,158.046204 
	C572.377869,157.881378 560.595520,157.765854 548.813354,157.632263 
z"/>
<path fill="#A3C4B0" opacity="1.000000" stroke="none" 
	d="
M282.623993,255.949097 
	C282.951111,270.928101 282.901825,286.075714 282.517761,301.306824 
	C282.116180,291.999603 282.105194,282.607849 281.947723,273.218597 
	C281.902100,270.496796 281.436554,267.782013 281.163513,265.064026 
	C281.524902,262.081909 281.886261,259.099792 282.623993,255.949097 
z"/>
<path fill="#BBE5CE" opacity="1.000000" stroke="none" 
	d="
M532.073853,516.345337 
	C548.597534,515.851318 565.320251,515.760925 582.509644,515.696716 
	C582.457886,516.152954 581.938965,516.959167 581.421021,516.958496 
	C565.038269,516.936951 548.655579,516.836975 532.073853,516.345337 
z"/>
<path fill="#FFFFFF" opacity="1.000000" stroke="none" 
	d="
M548.550171,157.725952 
	C560.595520,157.765854 572.377869,157.881378 584.159607,158.046204 
	C586.966370,158.085464 589.770813,158.289490 592.757751,158.803101 
	C579.843140,159.125641 566.747009,159.072403 553.651123,158.988922 
	C551.838684,158.977386 550.027161,158.816284 547.978638,158.334076 
	C547.923645,157.902359 548.105286,157.861008 548.550171,157.725952 
z"/>
<path fill="#C9FFFF" opacity="1.000000" stroke="none" 
	d="
M281.091003,265.523926 
	C281.436554,267.782013 281.902100,270.496796 281.947723,273.218597 
	C282.105194,282.607849 282.116180,291.999603 282.368896,301.762177 
	C282.574310,302.850311 282.593781,303.566681 282.417511,304.796387 
	C282.019592,305.562805 281.920410,305.851257 281.924225,306.175110 
	C281.612915,304.668060 281.040039,303.162415 281.031769,301.653717 
	C280.966522,289.764069 281.009094,277.873840 281.091003,265.523926 
z"/>
<path fill="#AECAB8" opacity="1.000000" stroke="none" 
	d="
M432.397339,209.883102 
	C434.518158,206.926941 435.697723,207.623688 435.770966,211.323044 
	C435.875336,216.593826 436.000458,221.864197 436.035675,227.602905 
	C435.354156,223.737198 434.807526,219.394836 434.126831,215.073578 
	C433.850769,213.320892 433.282654,211.614197 432.397339,209.883102 
z"/>
<path fill="#CCEDD9" opacity="1.000000" stroke="none" 
	d="
M329.942566,143.371582 
	C341.544464,142.941513 353.379761,142.904251 365.690247,142.937317 
	C365.678345,143.334534 365.190796,143.947342 364.704315,143.946457 
	C353.194824,143.925797 341.685425,143.839050 329.942566,143.371582 
z"/>
<path fill="#FFFFFF" opacity="1.000000" stroke="none" 
	d="
M661.529785,157.758881 
	C672.554382,157.798584 683.324219,157.923965 694.564636,158.027802 
	C694.550598,158.334259 694.065186,158.949539 693.581604,158.948059 
	C682.793274,158.915009 672.005127,158.813995 660.982056,158.334839 
	C660.923096,157.910706 661.099121,157.877625 661.529785,157.758881 
z"/>
<path fill="#AECAB8" opacity="1.000000" stroke="none" 
	d="
M409.416565,147.048080 
	C410.292603,145.807724 411.465729,143.289963 412.758179,143.227127 
	C419.837189,142.883026 426.945648,143.128067 434.042969,143.236328 
	C434.354675,143.241074 434.656586,143.887604 434.979492,144.664368 
	C428.030853,144.750977 421.066681,144.240021 414.100067,144.204132 
	C412.660980,144.196716 411.212769,145.957886 409.416565,147.048080 
z"/>
<path fill="#FFFFFF" opacity="1.000000" stroke="none" 
	d="
M468.342407,237.997803 
	C467.898560,238.030228 467.848114,237.836166 467.842163,236.898468 
	C467.798737,227.413559 467.710846,218.672287 467.622925,209.931000 
	C467.682892,209.740906 467.742828,209.550812 467.877319,209.070892 
	C468.299194,209.437790 468.949524,210.095139 468.948181,210.751160 
	C468.929932,219.757980 468.821777,228.764633 468.342407,237.997803 
z"/>
<path fill="#CCEDD9" opacity="1.000000" stroke="none" 
	d="
M615.338684,333.147858 
	C616.043518,326.817169 617.108459,320.240997 618.414124,313.440979 
	C617.669495,319.778870 616.684143,326.340637 615.338684,333.147858 
z"/>
<path fill="#AECAB8" opacity="1.000000" stroke="none" 
	d="
M646.116699,159.697968 
	C643.852173,157.400757 646.015930,157.159393 647.783569,157.133896 
	C651.668579,157.077850 655.557068,157.257736 659.759033,157.623291 
	C655.484741,158.378372 650.895569,158.851456 646.116699,159.697968 
z"/>
<path fill="#8EAF9C" opacity="1.000000" stroke="none" 
	d="
M465.017151,247.355087 
	C465.699951,244.485672 466.521851,241.966248 467.642395,239.167572 
	C468.092316,241.646835 468.566589,244.436813 468.301666,247.154770 
	C468.049744,249.739685 466.520935,249.230896 465.017151,247.355087 
z"/>
<path fill="#A3C4B0" opacity="1.000000" stroke="none" 
	d="
M546.001953,146.497284 
	C545.991516,148.663177 545.638611,151.175293 545.642700,153.686829 
	C545.644653,154.905029 546.315674,156.122147 546.897217,157.631470 
	C545.186462,158.204041 543.401123,158.196838 543.920959,155.449371 
	C544.466614,152.565018 545.171204,149.710724 546.001953,146.497284 
z"/>
<path fill="#AECAB8" opacity="1.000000" stroke="none" 
	d="
M446.036621,235.387360 
	C447.978058,236.156479 450.024902,237.260239 452.018799,238.725281 
	C450.024567,237.965042 448.083282,236.843521 446.036621,235.387360 
z"/>
<path fill="#A3C4B0" opacity="1.000000" stroke="none" 
	d="
M282.072357,306.516357 
	C281.920410,305.851257 282.019592,305.562805 282.395142,305.155212 
	C283.423523,304.911133 284.278534,304.821655 285.567352,304.741028 
	C284.740967,305.452484 283.480743,306.155060 282.072357,306.516357 
z"/>
<path fill="#AECAB8" opacity="1.000000" stroke="none" 
	d="
M436.006866,228.382874 
	C436.929535,228.496582 437.929291,228.940018 438.950989,229.732925 
	C438.009949,229.625793 437.046936,229.169205 436.006866,228.382874 
z"/>
<path fill="#CCEDD9" opacity="1.000000" stroke="none" 
	d="
M614.344604,338.018127 
	C614.091003,336.928802 614.204102,335.699768 614.615356,334.241150 
	C614.846130,335.300537 614.778687,336.589508 614.344604,338.018127 
z"/>
<path fill="#AECAB8" opacity="1.000000" stroke="none" 
	d="
M439.988770,231.393555 
	C440.966919,231.485489 442.004547,231.904739 443.000793,232.699661 
	C441.989044,232.623840 441.018646,232.172348 439.988770,231.393555 
z"/>
<path fill="#CCEDD9" opacity="1.000000" stroke="none" 
	d="
M355.956238,112.005920 
	C355.732483,112.787582 355.167694,113.541298 354.264709,114.113792 
	C354.489410,113.281036 355.052277,112.629509 355.956238,112.005920 
z"/>
<path fill="#CCEDD9" opacity="1.000000" stroke="none" 
	d="
M347.641785,119.987289 
	C347.506531,120.696457 347.073853,121.471107 346.281372,122.092636 
	C346.395844,121.310600 346.870087,120.681686 347.641785,119.987289 
z"/>
<path fill="#CCEDD9" opacity="1.000000" stroke="none" 
	d="
M353.640533,113.987946 
	C353.505920,114.697578 353.074127,115.472763 352.282043,116.093658 
	C352.395630,115.310738 352.869476,114.682114 353.640533,113.987946 
z"/>
<path fill="#CCEDD9" opacity="1.000000" stroke="none" 
	d="
M349.641388,117.987518 
	C349.506073,118.698097 349.073456,119.474136 348.281433,120.094604 
	C348.395996,119.310356 348.870056,118.681671 349.641388,117.987518 
z"/>
<path fill="#CCEDD9" opacity="1.000000" stroke="none" 
	d="
M345.642090,121.987091 
	C345.506622,122.696991 345.073700,123.472404 344.281250,124.093536 
	C344.396027,123.310371 344.870331,122.681488 345.642090,121.987091 
z"/>
<path fill="#CCEDD9" opacity="1.000000" stroke="none" 
	d="
M351.641937,115.987206 
	C351.506073,116.698746 351.072845,117.475708 350.280853,118.095657 
	C350.396271,117.309967 350.870422,116.681297 351.641937,115.987206 
z"/>
<path fill="#AECAB8" opacity="1.000000" stroke="none" 
	d="
M443.012543,233.368118 
	C443.583160,233.161285 444.237823,233.273209 444.934906,233.733887 
	C444.350433,233.950714 443.723480,233.818787 443.012543,233.368118 
z"/>
<path fill="#CCEDD9" opacity="1.000000" stroke="none" 
	d="
M343.608643,124.020172 
	C343.818848,124.503052 343.716339,125.070503 343.310425,125.802673 
	C343.103302,125.346512 343.199615,124.725624 343.608643,124.020172 
z"/>
<path fill="#BBE5CE" opacity="1.000000" stroke="none" 
	d="
M583.173950,515.209229 
	C583.098267,515.043152 583.215576,514.672485 583.600708,514.186279 
	C583.701233,514.382080 583.534058,514.693420 583.173950,515.209229 
z"/>
<path fill="#A3C4B0" opacity="1.000000" stroke="none" 
	d="
M287.202209,303.015015 
	C287.143921,302.873474 287.288879,302.630768 287.618835,302.282471 
	C287.854858,302.521606 287.722076,302.767273 287.202209,303.015015 
z"/>
<path fill="#AECAB8" opacity="1.000000" stroke="none" 
	d="
M452.003174,239.209656 
	C452.217316,239.054398 452.455444,239.194992 452.730896,239.611237 
	C452.471588,239.868744 452.224579,239.741623 452.003174,239.209656 
z"/>
<path fill="#AECAB8" opacity="1.000000" stroke="none" 
	d="
M444.966888,234.312271 
	C445.281067,234.172195 445.639740,234.309875 445.981384,234.762756 
	C445.646667,234.915298 445.329041,234.752655 444.966888,234.312271 
z"/>
<path fill="#AECAB8" opacity="1.000000" stroke="none" 
	d="
M438.965546,230.310837 
	C439.279419,230.173630 439.636871,230.312820 439.974091,230.766418 
	C439.638947,230.916306 439.324036,230.751785 438.965546,230.310837 
z"/>
<path fill="#8EAF9C" opacity="1.000000" stroke="none" 
	d="
M467.405609,210.283813 
	C467.710846,218.672287 467.798737,227.413559 467.751404,236.611725 
	C467.473511,228.257935 467.330902,219.447281 467.405609,210.283813 
z"/>
<path fill="#000000" opacity="1.000000" stroke="none" 
	d="
M240.033249,481.259766 
	C239.986816,481.587677 239.940384,481.915588 239.506134,482.613220 
	C235.325089,482.985168 231.526123,483.118469 227.740341,482.952057 
	C224.099396,482.792084 220.472076,482.321899 216.913696,481.525452 
	C216.992401,370.212555 216.996613,259.362244 216.994034,148.511917 
	C216.994003,147.350021 216.904343,146.188141 216.940170,144.787216 
	C217.042145,144.380356 217.060455,144.212540 217.078766,144.044708 
	C217.078766,144.044708 217.006363,144.012054 217.464996,144.010345 
	C224.922623,144.013916 231.921616,144.019180 238.957520,144.490295 
	C238.996262,255.211472 238.993088,365.466797 239.042938,475.722107 
	C239.043777,477.568146 239.688828,479.413879 240.033249,481.259766 
z"/>
<path fill="#FFFFFF" opacity="1.000000" stroke="none" 
	d="
M216.856522,145.026245 
	C216.904343,146.188141 216.994003,147.350021 216.994034,148.511917 
	C216.996613,259.362244 216.992401,370.212555 216.688110,481.529907 
	C216.387604,481.996948 215.938049,482.035980 215.938049,482.035980 
	C215.867401,478.045349 215.735107,474.054688 215.735107,470.064056 
	C215.735168,362.003754 215.748749,253.943436 216.074921,145.440552 
	C216.389755,144.997971 216.856522,145.026245 216.856522,145.026245 
z"/>
<path fill="#FFFFFF" opacity="1.000000" stroke="none" 
	d="
M240.160629,480.787170 
	C239.688828,479.413879 239.043777,477.568146 239.042938,475.722107 
	C238.993088,365.466797 238.996262,255.211472 239.217987,144.503632 
	C239.614960,144.038116 239.788361,144.025085 239.961761,144.012054 
	C240.092529,145.495026 240.337555,146.977982 240.337799,148.460968 
	C240.355957,258.413025 240.354858,368.365051 240.352310,478.317108 
	C240.352295,478.982941 240.310379,479.648773 240.160629,480.787170 
z"/>
<path fill="#E3FFEC" opacity="1.000000" stroke="none" 
	d="
M215.910675,482.478882 
	C215.938049,482.035980 216.387604,481.996948 216.613190,481.992493 
	C220.472076,482.321899 224.099396,482.792084 227.740341,482.952057 
	C231.526123,483.118469 235.325089,482.985168 239.575333,482.854279 
	C239.647888,483.177002 239.265610,484.019592 238.878571,484.021759 
	C231.516479,484.063385 224.153656,484.018433 216.791809,483.924896 
	C216.484756,483.920990 216.185944,483.270844 215.910675,482.478882 
z"/>
<path fill="#CCEDD9" opacity="1.000000" stroke="none" 
	d="
M239.723038,143.661530 
	C239.788361,144.025085 239.614960,144.038116 239.181091,144.037796 
	C231.921616,144.019180 224.922623,144.013916 217.454468,144.048645 
	C219.421036,143.727112 221.852432,143.099014 224.293335,143.059586 
	C229.354324,142.977814 234.420349,143.208694 239.723038,143.661530 
z"/>
<path fill="#CCEDD9" opacity="1.000000" stroke="none" 
	d="
M216.940170,144.787216 
	C216.856522,145.026245 216.389755,144.997971 216.156921,144.974579 
	C216.101624,144.574539 216.279160,144.197876 216.767731,143.932953 
	C217.060455,144.212540 217.042145,144.380356 216.940170,144.787216 
z"/>
</svg>