<svg width="88" height="44" viewBox="0 0 88 44" fill="none" xmlns="http://www.w3.org/2000/svg">
<path d="M33.5538 10.573H30.5248C30.4695 10.181 30.3566 9.83276 30.186 9.52834C30.0154 9.21931 29.7964 8.9564 29.529 8.73962C29.2616 8.52284 28.9527 8.35679 28.6023 8.24148C28.2566 8.12617 27.8808 8.06852 27.4751 8.06852C26.7421 8.06852 26.1035 8.25071 25.5595 8.61509C25.0155 8.97485 24.5937 9.50066 24.294 10.1925C23.9943 10.8798 23.8445 11.7146 23.8445 12.697C23.8445 13.7072 23.9943 14.5558 24.294 15.2431C24.5983 15.9303 25.0224 16.4492 25.5664 16.7998C26.1105 17.1503 26.7398 17.3256 27.4544 17.3256C27.8555 17.3256 28.2266 17.2725 28.5678 17.1665C28.9135 17.0604 29.2201 16.9059 29.4875 16.7029C29.7549 16.4953 29.9762 16.244 30.1514 15.9488C30.3312 15.6536 30.4557 15.3169 30.5248 14.9387L33.5538 14.9525C33.4754 15.6029 33.2795 16.2301 32.966 16.8344C32.6571 17.434 32.2399 17.9713 31.7143 18.4464C31.1933 18.9169 30.5709 19.2905 29.8471 19.5672C29.1279 19.8393 28.3142 19.9754 27.406 19.9754C26.1427 19.9754 25.0132 19.6894 24.0174 19.1175C23.0262 18.5456 22.2424 17.7176 21.6661 16.6337C21.0944 15.5498 20.8086 14.2376 20.8086 12.697C20.8086 11.1519 21.099 9.83737 21.6799 8.75346C22.2608 7.66955 23.0492 6.84393 24.045 6.27661C25.0409 5.70467 26.1612 5.4187 27.406 5.4187C28.2266 5.4187 28.9873 5.53401 29.6881 5.76463C30.3934 5.99525 31.0181 6.33195 31.5622 6.77474C32.1062 7.21292 32.5488 7.75026 32.8899 8.38677C33.2357 9.02328 33.457 9.75204 33.5538 10.573Z" fill="#2CD97B"/>
<path d="M43.3842 9.68747C43.3288 9.12937 43.0914 8.6958 42.6719 8.38677C42.2523 8.07774 41.683 7.92323 40.9638 7.92323C40.4751 7.92323 40.0624 7.99241 39.7259 8.13078C39.3893 8.26454 39.1312 8.45135 38.9514 8.69119C38.7762 8.93103 38.6886 9.20317 38.6886 9.50758C38.6793 9.76126 38.7324 9.98266 38.8476 10.1718C38.9675 10.3609 39.1312 10.5246 39.3386 10.663C39.5461 10.7967 39.7858 10.9144 40.0578 11.0158C40.3298 11.1127 40.6203 11.1957 40.9292 11.2649L42.2016 11.5693C42.8194 11.7077 43.3865 11.8922 43.9028 12.1228C44.4192 12.3534 44.8664 12.6371 45.2444 12.9738C45.6225 13.3105 45.9152 13.7072 46.1227 14.1638C46.3348 14.6204 46.4431 15.1439 46.4477 15.7343C46.4431 16.6014 46.2218 17.3533 45.7838 17.9898C45.3505 18.6217 44.7235 19.1129 43.9028 19.4634C43.0868 19.8093 42.1025 19.9823 40.9499 19.9823C39.8066 19.9823 38.8107 19.807 37.9624 19.4565C37.1187 19.106 36.4595 18.5871 35.9846 17.8998C35.5144 17.208 35.2677 16.3524 35.2447 15.333H38.1422C38.1745 15.8081 38.3105 16.2048 38.5503 16.523C38.7946 16.8367 39.1196 17.0742 39.5253 17.2356C39.9357 17.3925 40.399 17.4709 40.9153 17.4709C41.4225 17.4709 41.8628 17.3971 42.2362 17.2495C42.6143 17.1019 42.907 16.8966 43.1145 16.6337C43.3219 16.3708 43.4257 16.0687 43.4257 15.7274C43.4257 15.4091 43.3312 15.1416 43.1421 14.9248C42.9577 14.708 42.6857 14.5236 42.3261 14.3713C41.9711 14.2191 41.5354 14.0808 41.0191 13.9562L39.4769 13.5688C38.2829 13.2782 37.34 12.8239 36.6485 12.2058C35.957 11.5878 35.6135 10.7552 35.6181 9.70822C35.6135 8.85032 35.8417 8.1008 36.3027 7.45968C36.7684 6.81856 37.4069 6.31812 38.2183 5.95835C39.0297 5.59858 39.9518 5.4187 40.9845 5.4187C42.0357 5.4187 42.9531 5.59858 43.7369 5.95835C44.5252 6.31812 45.1384 6.81856 45.5764 7.45968C46.0144 8.1008 46.2403 8.8434 46.2541 9.68747H43.3842Z" fill="#2CD97B"/>
<path d="M55.2183 15.2569V9.15473H58.1643V19.7817H55.3358V17.8514H55.2252C54.9855 18.4741 54.5867 18.9745 54.0288 19.3527C53.4756 19.7309 52.8002 19.92 52.0026 19.92C51.2926 19.92 50.6679 19.7586 50.1285 19.4357C49.5891 19.1129 49.1672 18.6539 48.863 18.0589C48.5633 17.4639 48.4111 16.7513 48.4065 15.9211V9.15473H51.3525V15.3953C51.3571 16.0226 51.5254 16.5184 51.8574 16.8828C52.1893 17.2472 52.6342 17.4294 53.1921 17.4294C53.547 17.4294 53.879 17.3486 54.1879 17.1872C54.4968 17.0212 54.7457 16.7767 54.9348 16.4538C55.1284 16.131 55.2229 15.732 55.2183 15.2569Z" fill="#2CD97B"/>
<path d="M60.5207 19.7817V9.15473H63.3284V11.0297H63.4529C63.6742 10.407 64.043 9.91578 64.5594 9.55601C65.0757 9.19625 65.6935 9.01636 66.4127 9.01636C67.1411 9.01636 67.7612 9.19855 68.273 9.56293C68.7847 9.9227 69.1259 10.4116 69.2965 11.0297H69.4071C69.6238 10.4208 70.0157 9.93423 70.5827 9.56985C71.1544 9.20086 71.8298 9.01636 72.609 9.01636C73.6002 9.01636 74.4047 9.33231 75.0225 9.96421C75.6449 10.5915 75.9561 11.4817 75.9561 12.6348V19.7817H73.017V13.2159C73.017 12.6256 72.8602 12.1828 72.5467 11.8876C72.2332 11.5924 71.8414 11.4448 71.3711 11.4448C70.8363 11.4448 70.4191 11.6154 70.1194 11.9568C69.8197 12.2935 69.6699 12.7386 69.6699 13.292V19.7817H66.8138V13.1537C66.8138 12.6325 66.664 12.2174 66.3643 11.9083C66.0692 11.5993 65.6797 11.4448 65.1956 11.4448C64.8683 11.4448 64.5732 11.5278 64.3104 11.6939C64.0522 11.8553 63.8471 12.0836 63.6949 12.3788C63.5428 12.6694 63.4667 13.0107 63.4667 13.4027V19.7817H60.5207Z" fill="#2CD97B"/>
<path d="M83.124 19.9892C82.0313 19.9892 81.0908 19.7678 80.3025 19.325C79.5187 18.8776 78.9147 18.2457 78.4906 17.4294C78.0664 16.6084 77.8544 15.6374 77.8544 14.5166C77.8544 13.4235 78.0664 12.4641 78.4906 11.6385C78.9147 10.8129 79.5118 10.1695 80.2817 9.70822C81.0562 9.24698 81.9645 9.01636 83.0064 9.01636C83.7072 9.01636 84.3595 9.12937 84.9635 9.35537C85.5721 9.57677 86.1022 9.91117 86.554 10.3586C87.0105 10.806 87.3655 11.3687 87.619 12.0467C87.8726 12.7201 87.9994 13.5088 87.9994 14.4129V15.2223H79.03V13.3958H85.2263C85.2263 12.9715 85.1341 12.5956 84.9497 12.2681C84.7652 11.9406 84.5094 11.6846 84.182 11.5001C83.8593 11.311 83.4836 11.2165 83.0548 11.2165C82.6076 11.2165 82.2111 11.3203 81.8654 11.5278C81.5242 11.7308 81.2568 12.0052 81.0632 12.3511C80.8695 12.6924 80.7704 13.073 80.7658 13.4927V15.2292C80.7658 15.7551 80.8626 16.2094 81.0562 16.5922C81.2545 16.975 81.5334 17.2702 81.893 17.4778C82.2526 17.6853 82.6791 17.7891 83.1724 17.7891C83.4997 17.7891 83.7994 17.743 84.0714 17.6508C84.3434 17.5585 84.5762 17.4201 84.7699 17.2356C84.9635 17.0511 85.111 16.8251 85.2124 16.5576L87.9371 16.7375C87.7988 17.3925 87.5153 17.9644 87.0865 18.4533C86.6624 18.9376 86.1138 19.3158 85.4407 19.588C84.7722 19.8555 83.9999 19.9892 83.124 19.9892Z" fill="#2CD97B"/>
<path d="M17.2141 2C8.81156 2 2 8.81462 2 17.2209H16.4267" stroke="#2CD97B" stroke-width="3"/>
<path d="M1.99963 26.7791C1.99963 35.1854 8.81119 42 17.2137 42C25.6162 42 32.4277 35.1854 32.4277 26.7791H24.3529" stroke="#2CD97B" stroke-width="3"/>
<path d="M24.0788 25.2938C24.0788 29.5313 20.6451 32.9665 16.4095 32.9665C12.1739 32.9665 8.74023 29.5313 8.74023 25.2938C8.74023 21.0563 12.1739 17.6211 16.4095 17.6211" stroke="#2CD97B" stroke-width="3"/>
<path d="M18.4548 25.2937C18.4548 26.4231 17.5397 27.3379 16.412 27.3379C15.2842 27.3379 14.3691 26.4231 14.3691 25.2937C14.3691 24.1643 15.2842 23.2495 16.412 23.2495C17.5397 23.2495 18.4548 24.1643 18.4548 25.2937Z" stroke="#2CD97B" stroke-width="2"/>
<path d="M39.7249 26.9112C39.7105 26.7526 39.6464 26.6294 39.5326 26.5415C39.4202 26.4521 39.2596 26.4074 39.0506 26.4074C38.9123 26.4074 38.7971 26.4254 38.7049 26.4615C38.6127 26.4975 38.5435 26.5472 38.4974 26.6106C38.4513 26.6726 38.4275 26.744 38.4261 26.8247C38.4232 26.891 38.4362 26.9494 38.465 26.9998C38.4952 27.0503 38.5385 27.0949 38.5947 27.1339C38.6523 27.1713 38.7214 27.2045 38.8021 27.2333C38.8828 27.2621 38.9736 27.2874 39.0744 27.309L39.4548 27.3955C39.6738 27.443 39.8668 27.5064 40.0339 27.5857C40.2025 27.665 40.3437 27.7594 40.4575 27.869C40.5728 27.9785 40.6599 28.1046 40.719 28.2473C40.7781 28.39 40.8083 28.55 40.8098 28.7273C40.8083 29.0069 40.7377 29.2469 40.598 29.4473C40.4582 29.6476 40.2573 29.8011 39.995 29.9078C39.7343 30.0144 39.4195 30.0678 39.0506 30.0678C38.6804 30.0678 38.3577 30.0123 38.0825 29.9013C37.8073 29.7903 37.5934 29.6217 37.4406 29.3954C37.2879 29.1691 37.2094 28.883 37.2051 28.537H38.2294C38.2381 28.6797 38.2763 28.7986 38.344 28.8938C38.4117 28.9889 38.5046 29.061 38.6228 29.11C38.7423 29.159 38.8806 29.1835 39.0377 29.1835C39.1818 29.1835 39.3042 29.164 39.4051 29.1251C39.5074 29.0862 39.5859 29.0321 39.6406 28.963C39.6954 28.8938 39.7235 28.8145 39.7249 28.7251C39.7235 28.6415 39.6975 28.5702 39.6471 28.5111C39.5967 28.4505 39.5189 28.3987 39.4137 28.3554C39.31 28.3107 39.1774 28.2697 39.0161 28.2322L38.5536 28.1241C38.1704 28.0362 37.8685 27.8942 37.6481 27.6982C37.4277 27.5007 37.3182 27.234 37.3196 26.8982C37.3182 26.6243 37.3917 26.3843 37.54 26.1782C37.6884 25.9721 37.8937 25.8114 38.156 25.6961C38.4182 25.5808 38.7171 25.5231 39.0528 25.5231C39.3957 25.5231 39.6932 25.5815 39.9453 25.6982C40.1989 25.8136 40.3956 25.9757 40.5353 26.1847C40.6751 26.3937 40.7464 26.6359 40.7493 26.9112H39.7249Z" fill="#2CD97B"/>
<path d="M46.5531 30.0743C46.2059 30.0743 45.9062 30.0058 45.6541 29.8689C45.4034 29.7305 45.2103 29.5337 45.0749 29.2786C44.9409 29.0221 44.8739 28.7172 44.8739 28.3641C44.8739 28.021 44.9416 27.7212 45.0771 27.4646C45.2125 27.2066 45.4034 27.0063 45.6497 26.8636C45.8961 26.7195 46.1864 26.6474 46.5207 26.6474C46.7569 26.6474 46.973 26.6841 47.169 26.7577C47.3649 26.8312 47.5342 26.94 47.6768 27.0841C47.8195 27.2283 47.9304 27.4063 48.0096 27.6182C48.0889 27.8286 48.1285 28.07 48.1285 28.3424V28.6062H45.2435V27.9922H47.1452C47.1438 27.8798 47.1171 27.7796 47.0653 27.6917C47.0134 27.6037 46.9421 27.5353 46.8513 27.4863C46.762 27.4358 46.659 27.4106 46.5423 27.4106C46.4241 27.4106 46.3182 27.4373 46.2246 27.4906C46.1309 27.5425 46.0567 27.6138 46.002 27.7046C45.9473 27.794 45.9184 27.8956 45.9156 28.0095V28.6343C45.9156 28.7698 45.9422 28.8887 45.9955 28.9911C46.0488 29.092 46.1245 29.1705 46.2224 29.2267C46.3204 29.2829 46.4371 29.311 46.5725 29.311C46.6662 29.311 46.7512 29.2981 46.8275 29.2721C46.9039 29.2462 46.9694 29.208 47.0242 29.1575C47.0789 29.1071 47.12 29.0451 47.1474 28.9716L48.1177 28.9997C48.0774 29.2174 47.9888 29.4069 47.8519 29.5683C47.7165 29.7283 47.5385 29.853 47.3181 29.9424C47.0977 30.0303 46.8427 30.0743 46.5531 30.0743Z" fill="#2CD97B"/>
<path d="M53.8691 30.0743C53.519 30.0743 53.2186 30.0022 52.9679 29.858C52.7187 29.7139 52.5271 29.5136 52.3931 29.257C52.2591 28.999 52.1921 28.7006 52.1921 28.3619C52.1921 28.0217 52.2591 27.7234 52.3931 27.4668C52.5285 27.2088 52.7209 27.0077 52.9701 26.8636C53.2208 26.7195 53.5197 26.6474 53.867 26.6474C54.1738 26.6474 54.4411 26.7029 54.6687 26.8139C54.8978 26.9249 55.0764 27.082 55.2047 27.2852C55.3343 27.487 55.4028 27.7241 55.41 27.9965H54.4223C54.4022 27.8264 54.3446 27.6931 54.2495 27.5965C54.1558 27.5 54.0334 27.4517 53.8821 27.4517C53.7596 27.4517 53.6523 27.4863 53.5601 27.5555C53.4679 27.6232 53.3958 27.7241 53.344 27.8581C53.2935 27.9908 53.2683 28.1551 53.2683 28.3511C53.2683 28.5471 53.2935 28.7129 53.344 28.8484C53.3958 28.9824 53.4679 29.084 53.5601 29.1532C53.6523 29.221 53.7596 29.2548 53.8821 29.2548C53.98 29.2548 54.0665 29.2339 54.1414 29.1921C54.2178 29.1503 54.2804 29.0891 54.3294 29.0084C54.3784 28.9262 54.4094 28.8267 54.4223 28.71H55.41C55.3999 28.9839 55.3314 29.2231 55.2047 29.4278C55.0793 29.6325 54.9028 29.7917 54.6752 29.9056C54.449 30.018 54.1803 30.0743 53.8691 30.0743Z" fill="#2CD97B"/>
<path d="M61.7438 28.5781V26.6906H62.7984V30.0116H61.7913V29.3932H61.7568C61.6833 29.5964 61.5579 29.7579 61.3807 29.8775C61.205 29.9957 60.9925 30.0548 60.7432 30.0548C60.517 30.0548 60.3182 30.0029 60.1467 29.8991C59.9753 29.7953 59.842 29.6505 59.7469 29.4646C59.6519 29.2772 59.6036 29.0581 59.6022 28.8073V26.6906H60.6589V28.5997C60.6604 28.7799 60.7079 28.9219 60.8016 29.0257C60.8952 29.1294 61.0227 29.1813 61.1841 29.1813C61.2892 29.1813 61.3836 29.1583 61.4672 29.1121C61.5522 29.0646 61.6192 28.9961 61.6682 28.9067C61.7186 28.8159 61.7438 28.7064 61.7438 28.5781Z" fill="#2CD97B"/>
<path d="M67.1224 30.0116V26.6906H68.1489V27.296H68.1835C68.244 27.0769 68.3427 26.914 68.4796 26.8074C68.6164 26.6993 68.7756 26.6452 68.9572 26.6452C69.0062 26.6452 69.0566 26.6488 69.1084 26.656C69.1603 26.6618 69.2086 26.6712 69.2532 26.6841V27.603C69.2028 27.5857 69.1365 27.572 69.0544 27.5619C68.9737 27.5519 68.9017 27.5468 68.8383 27.5468C68.713 27.5468 68.5999 27.5749 68.499 27.6311C68.3996 27.6859 68.3211 27.763 68.2635 27.8625C68.2073 27.9605 68.1792 28.0758 68.1792 28.2084V30.0116H67.1224Z" fill="#2CD97B"/>
<path d="M73.3352 30.0116V26.6906H74.392V30.0116H73.3352ZM73.8647 26.3036C73.7163 26.3036 73.5888 26.2546 73.4822 26.1566C73.3755 26.0572 73.3222 25.9375 73.3222 25.7977C73.3222 25.6593 73.3755 25.5411 73.4822 25.4431C73.5888 25.3437 73.7163 25.2939 73.8647 25.2939C74.0145 25.2939 74.142 25.3437 74.2472 25.4431C74.3538 25.5411 74.4071 25.6593 74.4071 25.7977C74.4071 25.9375 74.3538 26.0572 74.2472 26.1566C74.142 26.2546 74.0145 26.3036 73.8647 26.3036Z" fill="#2CD97B"/>
<path d="M80.5897 26.6906V27.469H78.4956V26.6906H80.5897ZM78.9343 25.895H79.991V28.9673C79.991 29.0321 80.0011 29.0848 80.0213 29.1251C80.0429 29.164 80.0739 29.1921 80.1142 29.2094C80.1546 29.2253 80.2028 29.2332 80.259 29.2332C80.2994 29.2332 80.3419 29.2296 80.3865 29.2224C80.4326 29.2138 80.4672 29.2065 80.4902 29.2008L80.6502 29.964C80.5997 29.9784 80.5284 29.9964 80.4362 30.018C80.3455 30.0397 80.2367 30.0534 80.1099 30.0591C79.8621 30.0706 79.6496 30.0418 79.4724 29.9726C79.2966 29.902 79.1619 29.7925 79.0683 29.644C78.976 29.4955 78.9314 29.3089 78.9343 29.084V25.895Z" fill="#2CD97B"/>
<path d="M85.4264 31.2569C85.2996 31.2569 85.18 31.2468 85.0676 31.2266C84.9553 31.2079 84.8587 31.1827 84.7781 31.151L85.0115 30.3834C85.1152 30.418 85.2088 30.4382 85.2924 30.444C85.3774 30.4497 85.4502 30.436 85.5107 30.4029C85.5726 30.3712 85.6202 30.3142 85.6533 30.2321L85.6944 30.1326L84.5144 26.6906H85.6209L86.2325 29.0602H86.2671L86.8873 26.6906H88.0002L86.749 30.3294C86.6885 30.511 86.6027 30.671 86.4918 30.8094C86.3823 30.9492 86.2404 31.0587 86.0661 31.138C85.8932 31.2173 85.68 31.2569 85.4264 31.2569Z" fill="#2CD97B"/>
<path d="M37.3326 37.3176V32.8897H40.4186V33.7588H38.4023V34.6669H40.2609V35.5382H38.4023V36.4484H40.4186V37.3176H37.3326Z" fill="#2CD97B"/>
<path d="M45.6389 33.9967L46.1857 35.0907L46.7519 33.9967H47.8173L46.8902 35.6571L47.8519 37.3176H46.7951L46.1857 36.2149L45.5914 37.3176H44.5195L45.4833 35.6571L44.567 33.9967H45.6389Z" fill="#2CD97B"/>
<path d="M51.9511 38.5629V33.9967H52.9971V34.5653H53.0295C53.0728 34.4644 53.134 34.3671 53.2132 34.2734C53.2939 34.1797 53.3962 34.1033 53.5201 34.0442C53.6454 33.9837 53.7953 33.9534 53.9696 33.9534C54.2001 33.9534 54.4155 34.014 54.6158 34.135C54.8175 34.2561 54.9803 34.4428 55.1042 34.695C55.2281 34.9472 55.29 35.2687 55.29 35.6593C55.29 36.0355 55.2302 36.3504 55.1107 36.6041C54.9925 36.8578 54.8326 37.048 54.6309 37.1749C54.4306 37.3017 54.208 37.3651 53.9631 37.3651C53.796 37.3651 53.6512 37.3378 53.5287 37.283C53.4063 37.2282 53.3033 37.1561 53.2197 37.0668C53.1376 36.9774 53.0742 36.8816 53.0295 36.7792H53.0079V38.5629H51.9511ZM52.9863 35.6571C52.9863 35.8358 53.0101 35.9915 53.0576 36.1241C53.1066 36.2567 53.1765 36.3598 53.2673 36.4333C53.3595 36.5054 53.4697 36.5414 53.5979 36.5414C53.7276 36.5414 53.8378 36.5054 53.9285 36.4333C54.0193 36.3598 54.0877 36.2567 54.1338 36.1241C54.1814 35.9915 54.2052 35.8358 54.2052 35.6571C54.2052 35.4784 54.1814 35.3234 54.1338 35.1923C54.0877 35.0611 54.0193 34.9595 53.9285 34.8874C53.8392 34.8154 53.729 34.7793 53.5979 34.7793C53.4682 34.7793 53.358 34.8146 53.2673 34.8853C53.1765 34.9559 53.1066 35.0568 53.0576 35.1879C53.0101 35.3191 52.9863 35.4755 52.9863 35.6571Z" fill="#2CD97B"/>
<path d="M61.0468 37.3803C60.6996 37.3803 60.4 37.3118 60.1478 37.1749C59.8971 37.0365 59.7041 36.8398 59.5687 36.5846C59.4347 36.3281 59.3677 36.0232 59.3677 35.6701C59.3677 35.327 59.4354 35.0272 59.5708 34.7707C59.7062 34.5127 59.8971 34.3123 60.1435 34.1696C60.3899 34.0255 60.6802 33.9534 61.0144 33.9534C61.2507 33.9534 61.4668 33.9902 61.6627 34.0637C61.8587 34.1372 62.028 34.246 62.1706 34.3901C62.3132 34.5343 62.4242 34.7123 62.5034 34.9242C62.5827 35.1346 62.6223 35.376 62.6223 35.6485V35.9122H59.7372V35.2982H61.639C61.6375 35.1858 61.6109 35.0856 61.559 34.9977C61.5072 34.9098 61.4358 34.8413 61.3451 34.7923C61.2557 34.7418 61.1527 34.7166 61.036 34.7166C60.9179 34.7166 60.812 34.7433 60.7184 34.7966C60.6247 34.8485 60.5505 34.9199 60.4958 35.0107C60.441 35.1 60.4122 35.2016 60.4093 35.3155V35.9403C60.4093 36.0758 60.436 36.1947 60.4893 36.2971C60.5426 36.398 60.6182 36.4765 60.7162 36.5327C60.8142 36.589 60.9309 36.6171 61.0663 36.6171C61.1599 36.6171 61.2449 36.6041 61.3213 36.5781C61.3977 36.5522 61.4632 36.514 61.518 36.4636C61.5727 36.4131 61.6138 36.3511 61.6411 36.2776L62.6115 36.3057C62.5711 36.5234 62.4825 36.7129 62.3457 36.8744C62.2102 37.0343 62.0323 37.159 61.8119 37.2484C61.5914 37.3363 61.3364 37.3803 61.0468 37.3803Z" fill="#2CD97B"/>
<path d="M66.8134 37.3176V33.9967H67.8399V34.602H67.8745C67.935 34.3829 68.0337 34.2201 68.1705 34.1134C68.3074 34.0053 68.4666 33.9513 68.6481 33.9513C68.6971 33.9513 68.7475 33.9549 68.7994 33.9621C68.8513 33.9678 68.8995 33.9772 68.9442 33.9902V34.909C68.8938 34.8917 68.8275 34.8781 68.7454 34.868C68.6647 34.8579 68.5927 34.8528 68.5293 34.8528C68.4039 34.8528 68.2908 34.8809 68.19 34.9371C68.0906 34.9919 68.0121 35.069 67.9544 35.1685C67.8982 35.2665 67.8701 35.3818 67.8701 35.5144V37.3176H66.8134Z" fill="#2CD97B"/>
<path d="M75.0544 33.9967V34.775H72.9603V33.9967H75.0544ZM73.399 33.201H74.4557V36.2733C74.4557 36.3382 74.4658 36.3908 74.486 36.4311C74.5076 36.47 74.5386 36.4982 74.5789 36.5155C74.6193 36.5313 74.6675 36.5392 74.7237 36.5392C74.764 36.5392 74.8066 36.5356 74.8512 36.5284C74.8973 36.5198 74.9319 36.5126 74.9549 36.5068L75.1149 37.27C75.0644 37.2844 74.9931 37.3024 74.9009 37.3241C74.8102 37.3457 74.7014 37.3594 74.5746 37.3651C74.3268 37.3767 74.1143 37.3478 73.9371 37.2787C73.7613 37.208 73.6266 37.0985 73.533 36.95C73.4407 36.8016 73.3961 36.6149 73.399 36.3901V33.201Z" fill="#2CD97B"/>
</svg>
